<svg xmlns="http://www.w3.org/2000/svg" width="164" height="161" viewBox="0 0 164 161" fill="none">
  <g clip-path="url(#clip0_224_86)">
    <path d="M162.279 60.1023C159.405 47.5755 150.978 38.8216 143.448 40.5366C137.505 41.8937 101.399 64.9788 86.505 74.6274C99.2439 62.3094 129.886 32.3793 132.535 26.9063C135.889 19.9718 129.182 9.84597 117.581 4.26856C105.965 -1.29394 93.84 -0.190385 90.4869 6.72918C87.8373 12.2171 83.4513 54.7337 81.7299 72.3308C80.0084 54.7337 75.6224 12.2022 72.9728 6.72918C69.6197 -0.190385 57.4947 -1.29394 45.8785 4.26856C34.2624 9.83105 27.5712 19.9718 30.9243 26.9063C33.5738 32.3942 64.2158 62.3094 76.9547 74.6274C62.0603 64.9937 25.9545 41.8937 20.0117 40.5515C12.4822 38.8366 4.05449 47.6053 1.1804 60.1172C-1.69369 72.644 2.09352 84.1716 9.62305 85.8866C15.5658 87.2437 58.1533 82.0391 75.7721 79.7872C58.9317 85.3796 18.2902 99.0994 13.515 102.887C7.48245 107.689 9.09912 119.709 17.1376 129.745C25.1761 139.782 36.5826 144.032 42.6152 139.23C47.3904 135.442 69.8592 99.0248 79.0653 83.9181C72.9579 100.516 58.3778 140.721 58.3778 146.806C58.3778 154.501 68.8264 160.734 81.7149 160.734C94.6034 160.734 105.052 154.501 105.052 146.806C105.052 140.721 90.4868 100.531 84.3644 83.9181C93.5855 99.0397 116.054 135.442 120.815 139.23C126.847 144.032 138.254 139.767 146.292 129.745C154.331 119.724 155.947 107.689 149.915 102.887C145.14 99.0994 104.513 85.3796 87.6577 79.7872C105.276 82.0242 147.849 87.2288 153.807 85.8866C161.366 84.1716 165.138 72.6291 162.264 60.1172L162.279 60.1023Z" fill="white"/>
  </g>
  <defs>
    <clipPath id="clip0_224_86">
      <rect width="163" height="160" fill="white" transform="translate(0.238281 0.71936)"/>
    </clipPath>
  </defs>
</svg>